<svg width="17" height="17" viewBox="0 0 17 17" fill="none" xmlns="http://www.w3.org/2000/svg">
<mask id="path-1-inside-1_212_1413" fill="white">
<path d="M10.3414 8.33445C10.261 8.33445 10.1863 8.31234 10.12 8.27679V8.27773C10.12 8.40422 10.0708 8.523 9.98165 8.61196C9.89245 8.70116 9.77376 8.75032 9.64742 8.75032C9.56586 8.75032 9.49027 8.72767 9.42324 8.69117C9.41648 8.80688 9.37023 8.91503 9.28772 8.99763C9.19852 9.08683 9.07983 9.13599 8.95341 9.13599C8.70225 9.13599 8.49828 8.93855 8.48358 8.69109C8.40587 8.73309 8.31801 8.75512 8.22739 8.7493C7.98031 8.73309 7.78682 8.51962 7.78682 8.26318V6.13757L7.54478 6.55689C7.45259 6.71728 7.28003 6.81686 7.09423 6.81686C7.00369 6.81686 6.91426 6.7931 6.83505 6.74772C6.73641 6.69053 6.66586 6.59874 6.63651 6.48892C6.60702 6.37904 6.62228 6.26412 6.6793 6.16563C6.67938 6.16563 7.47123 4.79437 7.51954 4.71014C7.52528 4.69748 7.54164 4.66075 7.55557 4.62944C7.56886 4.59955 7.58027 4.56887 7.5912 4.53804C7.83 3.86387 8.42129 3.44509 9.1344 3.44509C10.0604 3.44509 10.8138 4.26203 10.8138 5.26619L10.8139 7.86179C10.8139 7.98811 10.7648 8.10681 10.6757 8.1961C10.5865 8.2853 10.4678 8.33446 10.3413 8.33446L10.3414 8.33445ZM9.13441 3.6962C8.52165 3.6962 8.03326 4.04231 7.82789 4.62202C7.81476 4.65883 7.80107 4.69564 7.7851 4.73151C7.73877 4.83542 7.73877 4.83542 7.72571 4.85036L7.72398 4.84887C7.65933 4.97087 7.46724 5.30351 6.89674 6.29131C6.8733 6.33182 6.86708 6.37885 6.87904 6.42385C6.89115 6.46884 6.92018 6.50675 6.96037 6.52996C7.08512 6.60161 7.25597 6.55536 7.32708 6.43148L7.80367 5.60634C7.83214 5.55718 7.88972 5.53303 7.94494 5.54798C7.99984 5.56269 8.03799 5.61248 8.03799 5.66927V8.26325C8.03799 8.38565 8.13033 8.49128 8.24385 8.49875C8.30929 8.50221 8.37033 8.48027 8.41619 8.43449C8.45788 8.3928 8.48084 8.33727 8.48084 8.27788V6.58138C8.48084 6.512 8.53708 6.45576 8.60646 6.45576C8.67584 6.45576 8.73208 6.51192 8.73208 6.58138L8.732 8.66349C8.732 8.78557 8.83134 8.88491 8.95342 8.88491C9.01273 8.88491 9.06842 8.86195 9.11019 8.82026C9.15188 8.77849 9.17484 8.7228 9.17484 8.66349V6.58138C9.17484 6.512 9.23101 6.45576 9.30046 6.45576C9.36984 6.45576 9.42608 6.51192 9.42608 6.58138L9.426 8.25837V8.27787C9.426 8.39987 9.52535 8.49921 9.6475 8.49921C9.70673 8.49921 9.76226 8.47617 9.80427 8.43432C9.84596 8.39271 9.86892 8.33718 9.86892 8.27779V6.58129C9.86892 6.51191 9.92509 6.45567 9.99454 6.45567C10.0639 6.45567 10.1202 6.51183 10.1202 6.58129L10.12 7.86185C10.12 7.98401 10.2193 8.08335 10.3413 8.08335C10.4007 8.08335 10.4563 8.06031 10.498 8.0187C10.5398 7.97685 10.5627 7.92116 10.5627 7.86185L10.5628 5.26625C10.5628 4.40062 9.92202 3.69623 9.1344 3.69623L9.13441 3.6962Z"/>
</mask>
<path d="M10.3414 8.33445C10.261 8.33445 10.1863 8.31234 10.12 8.27679V8.27773C10.12 8.40422 10.0708 8.523 9.98165 8.61196C9.89245 8.70116 9.77376 8.75032 9.64742 8.75032C9.56586 8.75032 9.49027 8.72767 9.42324 8.69117C9.41648 8.80688 9.37023 8.91503 9.28772 8.99763C9.19852 9.08683 9.07983 9.13599 8.95341 9.13599C8.70225 9.13599 8.49828 8.93855 8.48358 8.69109C8.40587 8.73309 8.31801 8.75512 8.22739 8.7493C7.98031 8.73309 7.78682 8.51962 7.78682 8.26318V6.13757L7.54478 6.55689C7.45259 6.71728 7.28003 6.81686 7.09423 6.81686C7.00369 6.81686 6.91426 6.7931 6.83505 6.74772C6.73641 6.69053 6.66586 6.59874 6.63651 6.48892C6.60702 6.37904 6.62228 6.26412 6.6793 6.16563C6.67938 6.16563 7.47123 4.79437 7.51954 4.71014C7.52528 4.69748 7.54164 4.66075 7.55557 4.62944C7.56886 4.59955 7.58027 4.56887 7.5912 4.53804C7.83 3.86387 8.42129 3.44509 9.1344 3.44509C10.0604 3.44509 10.8138 4.26203 10.8138 5.26619L10.8139 7.86179C10.8139 7.98811 10.7648 8.10681 10.6757 8.1961C10.5865 8.2853 10.4678 8.33446 10.3413 8.33446L10.3414 8.33445ZM9.13441 3.6962C8.52165 3.6962 8.03326 4.04231 7.82789 4.62202C7.81476 4.65883 7.80107 4.69564 7.7851 4.73151C7.73877 4.83542 7.73877 4.83542 7.72571 4.85036L7.72398 4.84887C7.65933 4.97087 7.46724 5.30351 6.89674 6.29131C6.8733 6.33182 6.86708 6.37885 6.87904 6.42385C6.89115 6.46884 6.92018 6.50675 6.96037 6.52996C7.08512 6.60161 7.25597 6.55536 7.32708 6.43148L7.80367 5.60634C7.83214 5.55718 7.88972 5.53303 7.94494 5.54798C7.99984 5.56269 8.03799 5.61248 8.03799 5.66927V8.26325C8.03799 8.38565 8.13033 8.49128 8.24385 8.49875C8.30929 8.50221 8.37033 8.48027 8.41619 8.43449C8.45788 8.3928 8.48084 8.33727 8.48084 8.27788V6.58138C8.48084 6.512 8.53708 6.45576 8.60646 6.45576C8.67584 6.45576 8.73208 6.51192 8.73208 6.58138L8.732 8.66349C8.732 8.78557 8.83134 8.88491 8.95342 8.88491C9.01273 8.88491 9.06842 8.86195 9.11019 8.82026C9.15188 8.77849 9.17484 8.7228 9.17484 8.66349V6.58138C9.17484 6.512 9.23101 6.45576 9.30046 6.45576C9.36984 6.45576 9.42608 6.51192 9.42608 6.58138L9.426 8.25837V8.27787C9.426 8.39987 9.52535 8.49921 9.6475 8.49921C9.70673 8.49921 9.76226 8.47617 9.80427 8.43432C9.84596 8.39271 9.86892 8.33718 9.86892 8.27779V6.58129C9.86892 6.51191 9.92509 6.45567 9.99454 6.45567C10.0639 6.45567 10.1202 6.51183 10.1202 6.58129L10.12 7.86185C10.12 7.98401 10.2193 8.08335 10.3413 8.08335C10.4007 8.08335 10.4563 8.06031 10.498 8.0187C10.5398 7.97685 10.5627 7.92116 10.5627 7.86185L10.5628 5.26625C10.5628 4.40062 9.92202 3.69623 9.1344 3.69623L9.13441 3.6962Z" fill="#4CAF4F"/>
<path d="M10.3414 8.33445V7.88929H11.9141L10.5747 8.71357L10.3414 8.33445ZM10.12 8.27679H9.67485V7.53299L10.3304 7.88447L10.12 8.27679ZM9.98165 8.61196L9.66688 8.29719L9.66729 8.29677L9.98165 8.61196ZM9.42324 8.69117L8.97885 8.66519L9.01981 7.96459L9.63614 8.30022L9.42324 8.69117ZM9.28772 8.99763L9.60265 9.31223L9.60249 9.3124L9.28772 8.99763ZM8.48358 8.69109L8.27193 8.29947L8.88653 7.9673L8.92796 8.66469L8.48358 8.69109ZM8.22739 8.7493L8.19885 9.19354L8.19826 9.1935L8.22739 8.7493ZM7.78682 6.13757L7.40128 5.91503L8.23198 4.4759V6.13757H7.78682ZM7.54478 6.55689L7.15884 6.33506L7.15924 6.33435L7.54478 6.55689ZM6.83505 6.74772L6.61373 7.13396L6.61178 7.13283L6.83505 6.74772ZM6.63651 6.48892L7.06645 6.37352L7.06658 6.37401L6.63651 6.48892ZM6.6793 6.16563L6.29407 5.94257L6.42267 5.72047H6.6793V6.16563ZM7.51954 4.71014L7.92497 4.89397L7.91623 4.91325L7.9057 4.93161L7.51954 4.71014ZM7.55557 4.62944L7.14882 4.44855L7.14882 4.44855L7.55557 4.62944ZM7.5912 4.53804L8.01081 4.68667L8.01077 4.68679L7.5912 4.53804ZM10.8138 5.26619L10.3687 5.26621V5.26619H10.8138ZM10.8139 7.86179L11.2591 7.86178V7.86179H10.8139ZM10.6757 8.1961L10.9908 8.51058L10.9905 8.51087L10.6757 8.1961ZM10.3413 8.33446V8.77961H8.76858L10.108 7.95534L10.3413 8.33446ZM9.13441 3.6962V3.25105H9.72456L9.56244 3.8185L9.13441 3.6962ZM7.82789 4.62202L8.24749 4.77067L8.24715 4.77163L7.82789 4.62202ZM7.7851 4.73151L8.19178 4.91256L8.19167 4.91279L7.7851 4.73151ZM7.72571 4.85036L8.06094 5.14326L7.76972 5.47656L7.43475 5.18727L7.72571 4.85036ZM7.72398 4.84887L7.33065 4.64041L7.59221 4.14688L8.01495 4.51196L7.72398 4.84887ZM6.89674 6.29131L7.28222 6.51394L7.28203 6.51426L6.89674 6.29131ZM6.87904 6.42385L6.44919 6.53957L6.44882 6.53818L6.87904 6.42385ZM6.96037 6.52996L6.73865 6.91596L6.73781 6.91548L6.96037 6.52996ZM7.32708 6.43148L6.94099 6.20989L6.9416 6.20883L7.32708 6.43148ZM7.80367 5.60634L7.41819 5.38369L7.41846 5.38323L7.80367 5.60634ZM7.94494 5.54798L7.82974 5.97797L7.82864 5.97767L7.94494 5.54798ZM8.24385 8.49875L8.22033 8.94332L8.21461 8.94294L8.24385 8.49875ZM8.41619 8.43449L8.73096 8.74926L8.73068 8.74953L8.41619 8.43449ZM8.73208 6.58138H9.17723V6.58139L8.73208 6.58138ZM8.732 8.66349H8.28684V8.66348L8.732 8.66349ZM9.11019 8.82026L9.42526 9.13473L9.42466 9.13533L9.11019 8.82026ZM9.42608 6.58138H9.87123V6.5814L9.42608 6.58138ZM9.426 8.25837H8.98084V8.25834L9.426 8.25837ZM9.80427 8.43432L10.1187 8.74939L10.1185 8.74968L9.80427 8.43432ZM10.1202 6.58129H10.5653V6.58134L10.1202 6.58129ZM10.12 7.86185H9.67485L9.67485 7.86179L10.12 7.86185ZM10.498 8.0187L10.8127 8.33347L10.8124 8.33376L10.498 8.0187ZM10.5627 7.86185H10.1175V7.86184L10.5627 7.86185ZM10.5628 5.26625H11.0079V5.26627L10.5628 5.26625ZM9.1344 3.69623V4.14138H8.54425L8.70637 3.57394L9.1344 3.69623ZM10.3414 8.7796C10.1774 8.7796 10.0311 8.73423 9.90965 8.66911L10.3304 7.88447C10.3361 7.88756 10.3398 7.88874 10.3412 7.88913C10.3425 7.88946 10.3423 7.88929 10.3414 7.88929V8.7796ZM10.5652 8.27679V8.27773H9.67485V8.27679H10.5652ZM10.5652 8.27773C10.5652 8.52191 10.4693 8.75427 10.296 8.92715L9.66729 8.29677C9.67047 8.2936 9.67205 8.29088 9.67297 8.28866C9.67389 8.28643 9.67485 8.283 9.67485 8.27773H10.5652ZM10.2964 8.92673C10.1237 9.09948 9.89172 9.19548 9.64742 9.19548V8.30516C9.65253 8.30516 9.65589 8.30424 9.65817 8.30329C9.66045 8.30235 9.6634 8.30066 9.66688 8.29719L10.2964 8.92673ZM9.64742 9.19548C9.48137 9.19548 9.3332 9.14902 9.21035 9.08211L9.63614 8.30022C9.64194 8.30338 9.64561 8.30458 9.64707 8.30498C9.64832 8.30532 9.64822 8.30516 9.64742 8.30516V9.19548ZM9.86764 8.71715C9.85483 8.93626 9.76595 9.14877 9.60265 9.31223L8.97278 8.68302C8.97443 8.68136 8.97539 8.6799 8.97619 8.67807C8.97707 8.67606 8.97845 8.67198 8.97885 8.66519L9.86764 8.71715ZM9.60249 9.3124C9.42971 9.48518 9.19775 9.58114 8.95341 9.58114V8.69083C8.95859 8.69083 8.96198 8.68989 8.96426 8.68895C8.96653 8.68801 8.96947 8.68633 8.97294 8.68285L9.60249 9.3124ZM8.95341 9.58114C8.46196 9.58114 8.0676 9.19543 8.03921 8.71749L8.92796 8.66469C8.92841 8.67227 8.9315 8.67891 8.93698 8.68413C8.93966 8.68668 8.94237 8.68832 8.94473 8.68929C8.9468 8.69014 8.94943 8.69083 8.95341 8.69083V9.58114ZM8.69524 9.08271C8.55145 9.16042 8.38097 9.20524 8.19885 9.19354L8.25593 8.30506C8.25593 8.30506 8.25688 8.30515 8.25923 8.3046C8.26174 8.30402 8.2661 8.30262 8.27193 8.29947L8.69524 9.08271ZM8.19826 9.1935C7.70399 9.16108 7.34167 8.74075 7.34167 8.26318H8.23198C8.23198 8.27823 8.23744 8.28982 8.24429 8.29738C8.25097 8.30475 8.2555 8.30503 8.25652 8.3051L8.19826 9.1935ZM7.34167 8.26318V6.13757H8.23198V8.26318H7.34167ZM8.17236 6.36011L7.93032 6.77943L7.15924 6.33435L7.40128 5.91503L8.17236 6.36011ZM7.93072 6.77873C7.75871 7.07799 7.43853 7.26201 7.09423 7.26201V6.3717C7.12152 6.3717 7.14647 6.35656 7.15884 6.33506L7.93072 6.77873ZM7.09423 7.26201C6.92588 7.26201 6.76017 7.21787 6.61373 7.13396L7.05637 6.36147C7.06834 6.36833 7.08149 6.3717 7.09423 6.3717V7.26201ZM6.61178 7.13283C6.41192 7.01697 6.26645 6.82841 6.20644 6.60383L7.06658 6.37401C7.06618 6.37249 7.06507 6.36981 7.06292 6.36702C7.0608 6.36424 7.05883 6.3629 7.05832 6.3626L6.61178 7.13283ZM6.20658 6.60433C6.14634 6.37992 6.17788 6.14323 6.29407 5.94257L7.06454 6.38869C7.06517 6.3876 7.06629 6.38506 7.06676 6.38146C7.06724 6.37785 7.06684 6.37497 7.06645 6.37352L6.20658 6.60433ZM6.6793 5.72047C6.46094 5.77771 6.29749 5.93676 6.29627 5.93881C6.29587 5.93949 6.29526 5.94052 6.29507 5.94085C6.29496 5.94104 6.29477 5.94137 6.2947 5.94148C6.29466 5.94155 6.29458 5.94169 6.29456 5.94172C6.2945 5.94183 6.29452 5.94179 6.29469 5.9415C6.29499 5.94098 6.2955 5.94011 6.29624 5.93883C6.2977 5.9363 6.29989 5.9325 6.3028 5.92748C6.30859 5.91745 6.31711 5.9027 6.32798 5.88388C6.34973 5.84624 6.38084 5.79236 6.41834 5.72743C6.49334 5.59757 6.59383 5.42355 6.69582 5.24689C6.90016 4.89297 7.10966 4.53005 7.13338 4.48868L7.9057 4.93161C7.88112 4.97446 7.67053 5.33928 7.46685 5.69206C7.36484 5.86874 7.26433 6.04279 7.18932 6.17268C7.15182 6.23762 7.12068 6.29153 7.09892 6.32921C7.08804 6.34804 7.07949 6.36284 7.07365 6.37294C7.07074 6.37798 7.06848 6.38189 7.06693 6.38456C7.06617 6.38588 7.06554 6.38697 7.06508 6.38777C7.06486 6.38814 7.0646 6.3886 7.06434 6.38904C7.06425 6.3892 7.06396 6.38969 7.06362 6.39028C7.0634 6.39065 7.06278 6.39171 7.06236 6.39242C7.06112 6.39449 6.89767 6.55355 6.6793 6.61078V5.72047ZM7.11411 4.52631C7.11901 4.51551 7.13454 4.48066 7.14882 4.44855L7.96231 4.81033C7.94875 4.84083 7.93155 4.87945 7.92497 4.89397L7.11411 4.52631ZM7.14882 4.44855C7.15501 4.43464 7.16186 4.41686 7.17163 4.38929L8.01077 4.68679C7.99868 4.72089 7.98271 4.76446 7.96231 4.81033L7.14882 4.44855ZM7.17159 4.38941C7.47309 3.53822 8.23197 2.99993 9.1344 2.99993V3.89024C8.6106 3.89024 8.18691 4.18951 8.01081 4.68667L7.17159 4.38941ZM9.1344 2.99993C10.3395 2.99993 11.259 4.05081 11.259 5.26619H10.3687C10.3687 4.47325 9.78133 3.89024 9.1344 3.89024V2.99993ZM11.259 5.26618L11.2591 7.86178L10.3687 7.8618L10.3687 5.26621L11.259 5.26618ZM11.2591 7.86179C11.2591 8.1059 11.1633 8.33774 10.9908 8.51058L10.3606 7.88162C10.3642 7.87809 10.3659 7.87509 10.3668 7.87275C10.3678 7.87042 10.3687 7.86698 10.3687 7.86179H11.2591ZM10.9905 8.51087C10.8177 8.68367 10.5857 8.77961 10.3413 8.77961V7.8893C10.3466 7.8893 10.35 7.88835 10.3523 7.88741C10.3545 7.88647 10.3575 7.8848 10.3609 7.88132L10.9905 8.51087ZM10.108 7.95534L10.108 7.95533L10.5747 8.71357L10.5746 8.71358L10.108 7.95534ZM9.13441 4.14136C8.71117 4.14136 8.39023 4.36777 8.24749 4.77067L7.40829 4.47337C7.6763 3.71685 8.33214 3.25105 9.13441 3.25105V4.14136ZM8.24715 4.77163C8.2331 4.81101 8.21485 4.86074 8.19178 4.91256L7.37842 4.55047C7.38729 4.53055 7.39641 4.50665 7.40863 4.47241L8.24715 4.77163ZM8.19167 4.91279C8.17129 4.95851 8.15421 4.99712 8.14114 5.02328C8.13303 5.03951 8.1199 5.06453 8.10085 5.09224C8.08156 5.12031 8.06249 5.14148 8.06094 5.14326L7.39049 4.55747C7.39154 4.55627 7.39119 4.55666 7.39067 4.55727C7.38999 4.55806 7.38826 4.56008 7.38599 4.56285C7.38092 4.56903 7.37428 4.57754 7.36712 4.58797C7.3532 4.60823 7.34541 4.62395 7.34472 4.62532C7.34421 4.62633 7.34453 4.62574 7.34604 4.6225C7.34751 4.61936 7.34958 4.61484 7.35256 4.60826C7.35864 4.59483 7.36673 4.5767 7.37853 4.55023L8.19167 4.91279ZM7.43475 5.18727L7.43302 5.18577L8.01495 4.51196L8.01668 4.51346L7.43475 5.18727ZM8.11732 5.05732C8.04765 5.18878 7.84875 5.53304 7.28222 6.51394L6.51125 6.06867C7.08574 5.07398 7.27101 4.75295 7.33065 4.64041L8.11732 5.05732ZM7.28203 6.51426C7.31765 6.45271 7.32758 6.37844 7.30926 6.30951L6.44882 6.53818C6.40658 6.37927 6.42894 6.21092 6.51144 6.06835L7.28203 6.51426ZM7.30889 6.30812C7.29057 6.24008 7.24555 6.18058 7.18293 6.14443L6.73781 6.91548C6.59481 6.83293 6.49173 6.6976 6.44919 6.53957L7.30889 6.30812ZM7.1821 6.14395C7.13142 6.11484 7.08214 6.11503 7.04811 6.1242C7.01421 6.13332 6.97074 6.15805 6.94099 6.20989L7.71316 6.65306C7.51915 6.9911 7.07577 7.10961 6.73865 6.91596L7.1821 6.14395ZM6.9416 6.20883L7.41819 5.38369L8.18914 5.82899L7.71255 6.65412L6.9416 6.20883ZM7.41846 5.38323C7.54704 5.16124 7.80949 5.05014 8.06124 5.11828L7.82864 5.97767C7.96995 6.01592 8.11724 5.95312 8.18887 5.82946L7.41846 5.38323ZM8.06014 5.11799C8.30987 5.18489 8.48315 5.41121 8.48315 5.66927H7.59284C7.59284 5.81375 7.68981 5.94048 7.82974 5.97797L8.06014 5.11799ZM8.48315 5.66927V8.26325H7.59284V5.66927H8.48315ZM8.48315 8.26325C8.48315 8.21253 8.46436 8.16641 8.43351 8.13112C8.40271 8.09589 8.34836 8.05951 8.27308 8.05456L8.21461 8.94294C7.83987 8.91828 7.59284 8.59185 7.59284 8.26325H8.48315ZM8.26736 8.05422C8.21476 8.05143 8.15052 8.0707 8.10169 8.11944L8.73068 8.74953C8.59014 8.88983 8.40382 8.95299 8.22034 8.94328L8.26736 8.05422ZM8.10141 8.11971C8.05917 8.16196 8.03569 8.21984 8.03569 8.27788H8.926C8.926 8.45469 8.85658 8.62364 8.73096 8.74926L8.10141 8.11971ZM8.03569 8.27788V6.58138H8.926V8.27788H8.03569ZM8.03569 6.58138C8.03569 6.26615 8.29123 6.0106 8.60646 6.0106V6.90092C8.78294 6.90092 8.926 6.75785 8.926 6.58138H8.03569ZM8.60646 6.0106C8.92151 6.0106 9.17723 6.26589 9.17723 6.58138H8.28692C8.28692 6.75795 8.43016 6.90092 8.60646 6.90092V6.0106ZM9.17723 6.58139L9.17715 8.66351L8.28684 8.66348L8.28692 6.58136L9.17723 6.58139ZM9.17715 8.66349C9.17715 8.53972 9.07719 8.43976 8.95342 8.43976V9.33007C8.58549 9.33007 8.28684 9.03143 8.28684 8.66349H9.17715ZM8.95342 8.43976C8.89548 8.43976 8.83788 8.4631 8.79572 8.50518L9.42466 9.13533C9.29896 9.26079 9.12997 9.33007 8.95342 9.33007V8.43976ZM8.79512 8.50578C8.75303 8.54795 8.72969 8.60556 8.72969 8.66349H9.62C9.62 8.84004 9.55072 9.00903 9.42526 9.13473L8.79512 8.50578ZM8.72969 8.66349V6.58138H9.62V8.66349H8.72969ZM8.72969 6.58138C8.72969 6.26633 8.98497 6.0106 9.30046 6.0106V6.90091C9.47704 6.90091 9.62 6.75767 9.62 6.58138H8.72969ZM9.30046 6.0106C9.61551 6.0106 9.87123 6.26589 9.87123 6.58138H8.98092C8.98092 6.75796 9.12417 6.90091 9.30046 6.90091V6.0106ZM9.87123 6.5814L9.87116 8.25839L8.98084 8.25834L8.98092 6.58136L9.87123 6.5814ZM9.87116 8.25837V8.27787H8.98084V8.25837H9.87116ZM9.87116 8.27787C9.87116 8.1538 9.77098 8.05406 9.6475 8.05406V8.94437C9.27971 8.94437 8.98084 8.64594 8.98084 8.27787H9.87116ZM9.6475 8.05406C9.58835 8.05406 9.53108 8.07811 9.49009 8.11896L10.1185 8.74968C9.99344 8.87422 9.82511 8.94437 9.6475 8.94437V8.05406ZM9.48979 8.11925C9.44721 8.16175 9.42377 8.21983 9.42377 8.27779H10.3141C10.3141 8.45452 10.2447 8.62367 10.1187 8.74939L9.48979 8.11925ZM9.42377 8.27779V6.58129H10.3141V8.27779H9.42377ZM9.42377 6.58129C9.42377 6.26624 9.67906 6.01052 9.99454 6.01052V6.90083C10.1711 6.90083 10.3141 6.75759 10.3141 6.58129H9.42377ZM9.99454 6.01052C10.3096 6.01052 10.5653 6.2658 10.5653 6.58129H9.675C9.675 6.75787 9.81825 6.90083 9.99454 6.90083V6.01052ZM10.5653 6.58134L10.5652 7.8619L9.67485 7.86179L9.675 6.58123L10.5653 6.58134ZM10.5652 7.86185C10.5652 7.73836 10.4654 7.6382 10.3413 7.6382V8.52851C9.97329 8.52851 9.67485 8.22965 9.67485 7.86185H10.5652ZM10.3413 7.6382C10.2829 7.6382 10.2253 7.66184 10.1835 7.70363L10.8124 8.33376C10.6872 8.45877 10.5185 8.52851 10.3413 8.52851V7.6382ZM10.1832 7.70392C10.1408 7.74631 10.1175 7.80416 10.1175 7.86185H11.0078C11.0078 8.03815 10.9388 8.20739 10.8127 8.33347L10.1832 7.70392ZM10.1175 7.86184L10.1176 5.26624L11.0079 5.26627L11.0078 7.86186L10.1175 7.86184ZM10.1176 5.26625C10.1176 4.60591 9.63747 4.14138 9.1344 4.14138V3.25107C10.2066 3.25107 11.0079 4.19534 11.0079 5.26625H10.1176ZM8.70637 3.57394L8.70638 3.57391L9.56244 3.8185L9.56243 3.81852L8.70637 3.57394Z" fill="#4CAF4F" mask="url(#path-1-inside-1_212_1413)"/>
<path d="M4.88232 9.1925L4.85693 9.17883C4.8509 9.18969 4.83486 9.21892 4.81104 9.26184C4.81994 9.26631 4.8284 9.27115 4.8374 9.27454C4.85225 9.24779 4.86691 9.22028 4.88232 9.1925Z" fill="#4CAF4F" stroke="#4CAF4F" stroke-width="0.445155"/>
<path d="M9.46533 11.0381L9.57861 10.8496L9.47998 11.0137L9.46533 11.0381Z" fill="#4CAF4F" stroke="#4CAF4F" stroke-width="0.445155"/>
</svg>
