<svg width="17" height="17" viewBox="0 0 17 17" fill="none" xmlns="http://www.w3.org/2000/svg">
<g clip-path="url(#clip0_212_1407)">
<path d="M11.347 3.36194H11.348C12.0374 3.35994 12.7131 3.54331 13.3041 3.89124L13.5521 4.05042C14.1177 4.44484 14.5651 4.98364 14.849 5.60803L14.9603 5.88049C15.2305 6.62074 15.266 7.427 15.0619 8.18811C14.8578 8.94908 14.4239 9.6287 13.8197 10.1344L13.6156 10.3053L13.8578 10.4147C14.7264 10.8078 15.4892 11.3979 16.0863 12.1364L16.3314 12.4615L16.3324 12.4625C16.3769 12.5248 16.4091 12.5958 16.4261 12.6705C16.4346 12.7078 16.4388 12.7458 16.4398 12.7838L16.432 12.8981C16.4254 12.9359 16.4146 12.9728 16.4008 13.0084L16.35 13.11C16.3293 13.1423 16.3051 13.1724 16.2787 13.1998L16.1918 13.274L16.1898 13.275C16.0924 13.3446 15.9755 13.3818 15.8558 13.3815L15.7855 13.3776C15.7394 13.3718 15.6943 13.3598 15.6508 13.3434L15.5863 13.3151C15.5033 13.2718 15.4315 13.2097 15.3773 13.1334H15.3783C14.98 12.5683 14.4679 12.0936 13.8763 11.7399L13.6176 11.5963C13.0041 11.2778 12.3317 11.0915 11.6439 11.0494L11.348 11.0406L11.2328 11.0289C11.1581 11.0139 11.0872 10.9843 11.0238 10.942L10.9349 10.8698C10.8254 10.7603 10.7631 10.6115 10.7631 10.4567C10.7631 10.3405 10.7982 10.2277 10.8617 10.1324L10.9349 10.0436C11.0445 9.93402 11.1931 9.8717 11.348 9.8717C11.9677 9.87162 12.5652 9.65657 13.0404 9.26721L13.2367 9.08948C13.7374 8.58861 14.0189 7.90901 14.0189 7.20081C14.0188 6.58104 13.8029 5.98364 13.4135 5.50842L13.2367 5.31213C12.7984 4.87387 12.2231 4.6043 11.6117 4.54358L11.348 4.52991C11.1648 4.52956 10.9821 4.54877 10.8031 4.58655L10.6254 4.63049L10.6234 4.63147C10.5494 4.65347 10.4717 4.66017 10.3949 4.65198C10.3564 4.64786 10.3183 4.64009 10.2816 4.62854L10.1752 4.58264C10.1073 4.54527 10.0475 4.49488 9.99939 4.4342C9.97541 4.40399 9.95439 4.37169 9.93689 4.33752L9.8949 4.22913C9.87395 4.15459 9.86787 4.07648 9.87732 3.99963C9.88205 3.96133 9.89062 3.92378 9.90271 3.88733L9.94958 3.78186C9.96885 3.74812 9.99154 3.71626 10.017 3.68713L10.101 3.60803C10.1316 3.58448 10.1641 3.56349 10.1986 3.54651L10.307 3.50647L10.3099 3.50549C10.563 3.43344 10.8233 3.38858 11.0853 3.37073L11.347 3.36194ZM6.24548 3.35706C6.9346 3.35706 7.60945 3.54238 8.19958 3.89124L8.44666 4.05042C9.01115 4.44541 9.45805 4.98404 9.74158 5.60803L9.85291 5.88147C10.0888 6.52861 10.1453 7.22539 10.0199 7.89905L9.95544 8.18713C9.75229 8.94786 9.3197 9.62752 8.71716 10.1344L8.51501 10.3053L8.75623 10.4147C9.62481 10.8078 10.3877 11.3979 10.9847 12.1364L11.2299 12.4615L11.2347 12.4684C11.2591 12.4995 11.2807 12.5328 11.2982 12.568L11.3392 12.6793C11.3493 12.7175 11.3556 12.7564 11.3578 12.7955L11.3519 12.9137C11.3461 12.9527 11.337 12.9911 11.3236 13.028L11.2719 13.1344C11.2304 13.2017 11.1754 13.2597 11.1107 13.3053C11.0784 13.328 11.0442 13.3482 11.0082 13.3639L10.8949 13.399C10.8562 13.4072 10.817 13.4115 10.7777 13.4117L10.6605 13.401C10.6217 13.3933 10.5836 13.3812 10.5472 13.3658L10.4437 13.3092C10.4112 13.2868 10.3811 13.2613 10.3539 13.233L10.2806 13.1403L10.2758 13.1334L10.099 12.8971C9.73076 12.4343 9.28223 12.0416 8.77478 11.7379L8.51697 11.5934C7.81548 11.2288 7.03606 11.0387 6.24548 11.0387C5.55388 11.0387 4.8713 11.1849 4.24158 11.4655L3.97498 11.5934C3.36109 11.9125 2.8224 12.3575 2.39294 12.8971L2.21521 13.1334V13.1344C2.16181 13.2111 2.09007 13.2739 2.0072 13.317C1.94521 13.3492 1.87794 13.3694 1.80896 13.3776L1.73865 13.3815H1.73767C1.64772 13.3817 1.55953 13.3609 1.47986 13.3209L1.40369 13.275H1.40271C1.30799 13.2082 1.23595 13.115 1.1947 13.0084L1.16443 12.8971C1.14465 12.783 1.15945 12.6666 1.20544 12.5621L1.26208 12.4615C1.88901 11.5705 2.74315 10.8638 3.73572 10.4147L3.97693 10.3053L3.7738 10.1344C3.24674 9.69093 2.85043 9.11492 2.62341 8.46838L2.5365 8.18713C2.35882 7.52152 2.36352 6.82172 2.54822 6.16174L2.63904 5.88147C2.87516 5.23401 3.27994 4.66307 3.80994 4.22815L4.04431 4.05042C4.68947 3.59897 5.45806 3.35712 6.24548 3.35706ZM6.76697 4.58167C6.31355 4.49147 5.84546 4.52047 5.40857 4.66467L5.224 4.73401C4.79699 4.91088 4.42411 5.19475 4.14099 5.55725L4.02478 5.71741C3.73144 6.1565 3.57466 6.67274 3.57458 7.20081C3.57458 7.82078 3.79046 8.41883 4.18005 8.89417L4.35681 9.08948C4.85764 9.59031 5.53721 9.87163 6.24548 9.8717C6.70776 9.8717 7.16154 9.75265 7.56189 9.526L7.72986 9.42151C8.11403 9.16473 8.42433 8.81364 8.63123 8.40295L8.71326 8.22327C8.89008 7.79637 8.9529 7.33201 8.89685 6.87561L8.8656 6.6803C8.77545 6.22706 8.56915 5.80601 8.26892 5.45764L8.13416 5.31213C7.7607 4.93881 7.28487 4.68471 6.76697 4.58167Z" fill="#4CAF4F" stroke="#4CAF4F" stroke-width="0.333867"/>
</g>
<defs>
<clipPath id="clip0_212_1407">
<rect width="16.0256" height="16.0256" fill="white" transform="translate(0.737061 0.440308)"/>
</clipPath>
</defs>
</svg>
