<svg width="17" height="17" viewBox="0 0 17 17" fill="none" xmlns="http://www.w3.org/2000/svg">
<path d="M14.0917 14.8173V13.4818C14.0917 12.7734 13.8103 12.0941 13.3094 11.5932C12.8085 11.0923 12.1291 10.8109 11.4208 10.8109H10.753C10.5759 10.8109 10.4061 10.7405 10.2809 10.6153C10.1556 10.4901 10.0853 10.3203 10.0853 10.1432V6.80449C10.0853 6.45031 9.94459 6.11063 9.69414 5.86018C9.44369 5.60973 9.10401 5.46903 8.74982 5.46903C8.39564 5.46903 8.05595 5.60973 7.80551 5.86018C7.55506 6.11063 7.41436 6.45031 7.41436 6.80449V12.8141L5.8118 10.6773C5.6874 10.5115 5.5261 10.3769 5.34066 10.2841C5.15523 10.1914 4.95075 10.1432 4.74343 10.1432H4.45363C3.87604 10.1432 3.40796 10.6112 3.40796 11.1888C3.40796 11.3785 3.45937 11.5648 3.55686 11.727L5.41116 14.8173M8.74982 3.46583V2.7981V3.46583ZM12.7562 7.47223H13.424H12.7562ZM4.07569 7.47223H4.74343H4.07569ZM5.64019 4.36259L5.1681 3.89051L5.64019 4.36259ZM11.8595 4.36259L12.3315 3.89051L11.8595 4.36259Z" fill="#4CAF4F"/>
<path d="M14.0917 14.8173V13.4818C14.0917 12.7734 13.8103 12.0941 13.3094 11.5932C12.8085 11.0923 12.1291 10.8109 11.4208 10.8109H10.753C10.5759 10.8109 10.4061 10.7405 10.2809 10.6153C10.1556 10.4901 10.0853 10.3203 10.0853 10.1432V6.80449C10.0853 6.45031 9.94459 6.11063 9.69414 5.86018C9.44369 5.60973 9.10401 5.46903 8.74982 5.46903V5.46903C8.39564 5.46903 8.05596 5.60973 7.80551 5.86018C7.55506 6.11063 7.41436 6.45031 7.41436 6.80449V12.8141L5.8118 10.6773C5.6874 10.5115 5.5261 10.3769 5.34066 10.2841C5.15523 10.1914 4.95075 10.1432 4.74343 10.1432H4.45363C3.87604 10.1432 3.40796 10.6112 3.40796 11.1888C3.40796 11.3785 3.45937 11.5648 3.55686 11.727L5.41116 14.8173M8.74982 3.46583V2.7981M12.7562 7.47223H13.424M4.07569 7.47223H4.74343M5.64019 4.36259L5.1681 3.89051M11.8595 4.36259L12.3315 3.89051" stroke="#4CAF4F" stroke-width="0.667733" stroke-linecap="round" stroke-linejoin="round"/>
</svg>
