<svg width="17" height="17" viewBox="0 0 17 17" fill="none" xmlns="http://www.w3.org/2000/svg">
<path d="M4.14453 3.46594H13.6592C14.1433 3.46594 14.6102 3.63445 14.9814 3.9386L15.1348 4.07727C15.5261 4.46859 15.7461 4.99945 15.7461 5.55286V12.0626C15.7461 12.547 15.5778 13.0145 15.2734 13.3859L15.1348 13.5382C14.7434 13.9295 14.2126 14.1495 13.6592 14.1495H4.14453C3.66038 14.1495 3.19355 13.981 2.82227 13.6769L2.66895 13.5382C2.27763 13.1469 2.05762 12.616 2.05762 12.0626V5.55286C2.05762 5.06871 2.22614 4.60187 2.53027 4.23059L2.66895 4.07727C3.01125 3.73497 3.45998 3.52322 3.9375 3.47571L4.14453 3.46594ZM2.72559 12.0626C2.72559 12.4389 2.87453 12.8004 3.14062 13.0665C3.40673 13.3326 3.76821 13.4816 4.14453 13.4816H13.6592C14.0355 13.4816 14.397 13.3326 14.6631 13.0665C14.9292 12.8004 15.0781 12.4389 15.0781 12.0626V7.13879H2.72559V12.0626ZM11.4062 10.4767H12.9082C12.9747 10.4767 13.0392 10.4969 13.0938 10.5333L13.1445 10.5753C13.2069 10.6378 13.2421 10.7224 13.2422 10.8107C13.2422 10.8772 13.222 10.9417 13.1855 10.9962L13.1445 11.047C13.0819 11.1096 12.9968 11.1447 12.9082 11.1447H11.4062C11.3399 11.1447 11.2751 11.1252 11.2207 11.089L11.1699 11.047C11.1073 10.9844 11.0723 10.8992 11.0723 10.8107C11.0723 10.7445 11.0918 10.6804 11.1279 10.6261L11.1699 10.5753C11.2325 10.5127 11.3177 10.4767 11.4062 10.4767ZM4.14453 4.13391C3.76821 4.13391 3.40673 4.28285 3.14062 4.54895C2.87452 4.81505 2.72559 5.17653 2.72559 5.55286V6.47083H15.0781V5.55286C15.0781 5.17655 14.9292 4.81505 14.6631 4.54895C14.397 4.28285 14.0355 4.13391 13.6592 4.13391H4.14453Z" fill="#4CAF4F" stroke="#4CAF4F" stroke-width="0.333867"/>
</svg>
